<?xml version="1.0" standalone="no"?>
<!DOCTYPE svg PUBLIC "-//W3C//DTD SVG 20010904//EN"
 "http://www.w3.org/TR/2001/REC-SVG-20010904/DTD/svg10.dtd">
<svg version="1.0" xmlns="http://www.w3.org/2000/svg"
 width="220.000000pt" height="186.000000pt" viewBox="0 0 220.000000 186.000000"
 preserveAspectRatio="xMidYMid meet">

<g transform="translate(0.000000,186.000000) scale(0.100000,-0.100000)"
fill="#000000" stroke="none">
<path d="M1069 1837 c-15 -12 -65 -55 -112 -95 l-85 -72 -113 15 c-63 8 -128
17 -145 20 l-31 5 -38 -127 c-21 -71 -41 -135 -45 -143 -5 -8 -67 -42 -138
-74 l-130 -59 19 -66 c11 -36 29 -101 41 -143 l21 -77 -79 -122 -78 -122 70
-61 c38 -33 91 -82 118 -109 42 -41 54 -47 78 -42 54 12 37 45 -67 137 -52 46
-95 86 -95 89 0 3 29 52 65 108 36 57 65 110 65 119 0 10 -14 62 -30 117 -16
55 -30 107 -30 116 0 11 37 34 115 69 l115 54 30 95 c16 53 32 108 36 124 8
33 23 34 164 12 52 -8 98 -15 101 -15 3 0 50 38 104 85 86 72 102 83 117 72 9
-7 54 -44 101 -84 l83 -72 127 16 c70 9 129 14 132 12 3 -3 21 -60 41 -126
l36 -120 119 -54 c86 -39 118 -58 114 -69 -2 -8 -18 -65 -36 -127 l-32 -112
67 -104 c36 -57 66 -109 66 -114 0 -6 -43 -47 -95 -93 -104 -91 -120 -123 -67
-134 28 -7 31 -5 221 170 l45 42 -33 53 c-19 30 -53 86 -77 124 l-44 70 40
139 c22 77 38 141 37 142 -1 2 -61 30 -132 63 l-130 59 -41 137 c-23 75 -44
138 -46 140 -2 2 -68 -5 -146 -16 l-143 -20 -102 89 c-56 48 -107 91 -112 94
-6 3 -22 -4 -36 -15z"/>
<path d="M115 444 c-44 -13 -86 -26 -94 -29 -9 -4 15 -23 62 -51 42 -24 77
-46 77 -48 0 -2 -16 -38 -35 -80 -19 -42 -30 -76 -26 -76 5 0 63 15 128 34 65
18 150 39 188 46 39 7 73 17 76 23 4 6 37 5 92 -3 l85 -13 80 -123 81 -124
108 49 c59 27 119 54 133 60 23 11 40 6 160 -49 101 -45 136 -57 142 -48 4 7
40 63 80 123 l73 110 80 13 c54 9 86 10 100 3 11 -5 54 -17 95 -26 41 -8 124
-29 183 -46 60 -17 111 -29 113 -27 2 2 -8 28 -22 58 -50 106 -52 94 32 144
42 24 72 46 68 49 -12 7 -186 57 -199 57 -6 0 -22 -45 -35 -100 -13 -55 -26
-104 -30 -110 -4 -6 -54 1 -141 21 -73 17 -168 33 -209 36 l-76 6 -73 -112
c-41 -61 -76 -111 -79 -111 -3 0 -57 23 -119 52 l-114 51 -107 -47 c-59 -27
-114 -50 -122 -52 -10 -3 -39 32 -88 107 l-74 112 -76 -6 c-43 -3 -137 -20
-210 -36 -73 -17 -135 -31 -137 -31 -1 0 -15 50 -30 110 -21 85 -31 110 -44
109 -9 -1 -52 -12 -96 -25z"/>
</g>
</svg>
