<?xml version="1.0" standalone="no"?>
<!DOCTYPE svg PUBLIC "-//W3C//DTD SVG 20010904//EN"
 "http://www.w3.org/TR/2001/REC-SVG-20010904/DTD/svg10.dtd">
<svg version="1.0" xmlns="http://www.w3.org/2000/svg"
 width="760.000000pt" height="204.000000pt" viewBox="0 0 760.000000 204.000000"
 preserveAspectRatio="xMidYMid meet">

<g transform="translate(0.000000,204.000000) scale(0.100000,-0.100000)"
fill="#000000" stroke="none">
<path d="M1069 1867 c-15 -12 -65 -55 -112 -95 l-85 -72 -113 15 c-63 8 -128
17 -145 20 l-31 5 -38 -127 c-21 -71 -41 -135 -45 -143 -5 -8 -67 -42 -138
-74 l-130 -59 19 -66 c11 -36 29 -101 41 -143 l21 -77 -79 -122 -78 -122 70
-61 c38 -33 91 -82 118 -109 42 -41 54 -47 78 -42 54 12 37 45 -67 137 -52 46
-95 86 -95 89 0 3 29 52 65 108 36 57 65 110 65 119 0 10 -14 62 -30 117 -16
55 -30 107 -30 116 0 11 37 34 115 69 l115 54 30 95 c16 53 32 108 36 124 8
33 23 34 164 12 52 -8 98 -15 101 -15 3 0 50 38 104 85 86 72 102 83 117 72 9
-7 54 -44 101 -84 l83 -72 127 16 c70 9 129 14 132 12 3 -3 21 -60 41 -126
l36 -120 119 -54 c86 -39 118 -58 114 -69 -2 -8 -18 -65 -36 -127 l-32 -112
67 -104 c36 -57 66 -109 66 -114 0 -6 -43 -47 -95 -93 -104 -91 -120 -123 -67
-134 28 -7 31 -5 221 170 l45 42 -33 53 c-19 30 -53 86 -77 124 l-44 70 40
139 c22 77 38 141 37 142 -1 2 -61 30 -132 63 l-130 59 -41 137 c-23 75 -44
138 -46 140 -2 2 -68 -5 -146 -16 l-143 -20 -102 89 c-56 48 -107 91 -112 94
-6 3 -22 -4 -36 -15z"/>
<path d="M4301 1824 c-140 -37 -214 -131 -214 -269 1 -84 10 -111 59 -165 47
-52 80 -69 221 -113 127 -40 148 -50 185 -85 59 -55 41 -139 -38 -174 -88 -38
-171 -11 -209 70 l-19 42 -104 0 -104 0 7 -42 c27 -162 190 -261 400 -245 127
9 227 69 275 164 21 39 25 63 25 129 0 72 -3 86 -30 130 -41 65 -102 100 -266
154 -166 55 -204 85 -196 155 2 25 12 54 22 65 48 52 157 50 212 -5 18 -18 33
-42 33 -54 0 -20 5 -21 110 -21 123 0 119 -3 95 76 -17 58 -62 116 -116 150
-82 52 -235 68 -348 38z"/>
<path d="M2210 1340 l0 -490 238 0 c262 0 322 9 395 58 85 56 126 174 97 277
-16 56 -76 126 -132 153 -24 12 -36 21 -27 22 29 0 98 59 121 102 17 33 22 59
22 114 0 62 -4 78 -30 120 -38 62 -112 108 -198 123 -34 6 -158 11 -274 11
l-212 0 0 -490z m467 304 c15 -11 34 -39 42 -61 13 -35 13 -46 0 -79 -24 -63
-62 -79 -199 -79 l-115 0 -3 124 -3 123 125 -3 c107 -4 128 -7 153 -25z m-2
-388 c50 -21 77 -69 72 -129 -8 -92 -56 -117 -227 -117 l-120 0 0 130 0 130
120 0 c82 0 132 -5 155 -14z"/>
<path d="M3397 1823 c-7 -11 -347 -960 -347 -967 0 -4 46 -5 103 -4 l102 3 31
90 31 90 194 0 194 0 31 -90 31 -90 106 -3 106 -3 -23 63 c-13 35 -92 255
-176 491 l-153 427 -113 0 c-62 0 -115 -3 -117 -7z m247 -610 l7 -23 -134 0
c-73 0 -136 2 -139 5 -4 4 97 309 128 385 5 12 93 -223 138 -367z"/>
<path d="M4960 1340 l0 -490 95 0 95 0 2 208 3 207 208 3 207 2 0 -210 0 -210
100 0 100 0 -2 488 -3 487 -97 3 -98 3 0 -201 0 -200 -210 0 -210 0 0 200 0
200 -95 0 -95 0 0 -490z"/>
<path d="M5970 1340 l0 -490 95 0 95 0 0 490 0 490 -95 0 -95 0 0 -490z"/>
<path d="M6360 1340 l0 -490 95 0 95 0 0 190 0 190 48 0 47 0 106 -188 106
-187 116 -3 116 -3 -110 186 c-60 102 -112 191 -114 198 -3 7 12 19 38 30 136
56 203 206 158 360 -17 59 -79 131 -140 162 -71 36 -146 45 -363 45 l-198 0 0
-490z m446 304 c44 -21 64 -59 64 -121 0 -60 -16 -91 -59 -120 -30 -21 -46
-23 -147 -23 l-114 0 0 140 0 140 111 0 c82 0 120 -4 145 -16z"/>
<path d="M5311 666 c-22 -26 -10 -61 22 -64 37 -4 59 15 55 47 -2 21 -9 27
-34 29 -18 2 -36 -3 -43 -12z"/>
<path d="M2625 628 c-9 -39 -55 -305 -55 -317 0 -6 17 -11 38 -11 l39 0 28
163 c15 89 30 168 32 175 4 8 -7 12 -36 12 -34 0 -41 -4 -46 -22z"/>
<path d="M5955 603 c-9 -62 -12 -66 -38 -48 -53 37 -135 2 -175 -75 -47 -90
-8 -180 77 -180 20 0 46 7 57 15 25 19 35 19 28 0 -5 -12 2 -15 34 -15 36 0
41 3 46 28 9 40 56 306 56 315 0 4 -17 7 -39 7 -39 0 -39 0 -46 -47z m-38
-129 c16 -25 16 -28 -3 -63 -16 -30 -25 -37 -56 -39 -48 -4 -65 22 -48 73 20
59 77 74 107 29z"/>
<path d="M2357 618 c-23 -36 -167 -307 -167 -313 0 -3 18 -5 40 -5 34 0 42 4
55 30 15 29 19 30 80 30 62 0 64 -1 67 -27 3 -25 7 -28 46 -31 23 -2 42 -2 42
0 0 2 -14 75 -30 163 -16 88 -30 163 -30 168 0 4 -20 7 -45 7 -35 0 -47 -5
-58 -22z m56 -160 l6 -38 -45 0 -44 0 31 63 c35 68 37 67 52 -25z"/>
<path d="M4186 629 c-6 -17 -56 -304 -56 -318 0 -6 17 -11 39 -11 39 0 39 0
45 48 15 102 28 106 61 17 l22 -60 46 -3 46 -3 -27 67 c-22 56 -24 68 -12 72
25 9 69 58 76 86 9 38 -3 73 -32 93 -35 23 -201 32 -208 12z m152 -72 c28 -34
-14 -77 -75 -77 -23 0 -25 3 -19 31 3 17 6 38 6 45 0 18 73 19 88 1z"/>
<path d="M6680 636 c0 -2 18 -53 39 -113 34 -95 38 -115 30 -154 -13 -68 -13
-69 30 -69 l39 0 7 52 c6 41 22 72 79 157 40 58 75 112 80 119 5 9 -4 12 -36
12 -43 0 -44 -1 -87 -70 -39 -62 -61 -79 -61 -48 0 5 -7 34 -16 64 l-15 54
-45 0 c-24 0 -44 -2 -44 -4z"/>
<path d="M2734 493 c3 -43 9 -104 13 -136 l6 -58 44 3 44 3 37 85 37 85 2 -45
c2 -25 5 -64 9 -87 5 -43 5 -43 47 -43 l43 0 57 128 c31 70 57 131 57 135 0 4
-15 7 -34 7 -34 0 -35 0 -67 -90 -17 -50 -34 -88 -38 -85 -3 3 -8 43 -11 88
l-5 82 -41 3 -41 3 -39 -96 -39 -95 -5 92 -5 93 -39 3 -39 3 7 -78z"/>
<path d="M3209 547 c-78 -51 -102 -175 -44 -224 31 -27 91 -31 121 -8 25 19
35 19 28 0 -5 -12 3 -15 35 -15 23 0 41 1 41 3 0 1 11 59 23 130 13 70 21 129
19 132 -12 12 -70 4 -76 -11 -5 -14 -8 -14 -28 0 -32 23 -79 20 -119 -7z m118
-73 c16 -25 16 -28 -3 -63 -16 -30 -25 -37 -56 -39 -48 -4 -65 22 -48 73 20
59 77 74 107 29z"/>
<path d="M3470 553 c0 -10 13 -68 29 -130 l29 -112 -39 -63 c-22 -35 -39 -66
-39 -70 0 -5 17 -8 38 -8 l37 0 118 194 c64 107 117 197 117 200 0 3 -18 6
-39 6 -40 0 -40 0 -88 -87 l-47 -88 -13 65 c-23 117 -19 110 -63 110 -32 0
-40 -4 -40 -17z"/>
<path d="M3813 555 c-36 -16 -51 -53 -37 -93 6 -19 25 -32 64 -48 56 -23 72
-40 49 -55 -22 -14 -38 -11 -56 11 -21 24 -83 28 -83 6 0 -90 188 -106 221
-19 14 37 -11 69 -77 98 -59 26 -67 48 -21 53 18 2 29 -2 33 -12 8 -21 74 -22
74 -2 0 64 -88 96 -167 61z"/>
<path d="M4545 557 c-38 -18 -60 -43 -80 -90 -39 -93 6 -167 100 -167 59 0
135 46 135 82 0 15 -68 8 -99 -9 -36 -21 -64 -10 -69 26 -3 20 0 21 92 21 l96
0 0 44 c0 65 -31 97 -96 102 -29 3 -61 -1 -79 -9z m89 -69 c15 -24 5 -30 -50
-26 l-49 3 23 23 c26 26 59 26 76 0z"/>
<path d="M4787 562 c-5 -7 -47 -233 -47 -252 0 -5 17 -10 39 -10 l39 0 12 81
c14 88 33 119 74 119 42 0 50 -21 36 -97 -6 -38 -14 -76 -17 -85 -4 -15 2 -18
36 -18 23 0 41 1 41 3 0 32 35 166 47 179 20 22 56 23 73 3 12 -15 12 -34 -6
-142 l-7 -43 40 0 40 0 13 88 c17 113 15 132 -15 160 -34 29 -83 28 -127 -2
-33 -22 -35 -22 -46 -5 -17 27 -77 35 -118 15 -29 -14 -34 -14 -34 -1 0 10
-11 15 -34 15 -19 0 -37 -3 -39 -8z"/>
<path d="M5297 562 c-5 -7 -47 -233 -47 -252 0 -5 17 -10 38 -10 l38 0 22 128
c12 70 22 130 22 135 0 9 -67 9 -73 -1z"/>
<path d="M5437 562 c-5 -7 -47 -233 -47 -252 0 -5 17 -10 39 -10 l38 0 12 78
c15 94 31 122 70 122 47 0 55 -19 41 -97 -6 -38 -14 -76 -17 -85 -4 -15 2 -18
35 -18 l40 0 12 52 c6 29 13 78 17 109 5 52 3 60 -20 83 -30 30 -73 34 -117
11 -27 -14 -30 -14 -30 0 0 10 -10 15 -34 15 -19 0 -37 -3 -39 -8z"/>
<path d="M6135 557 c-38 -18 -60 -43 -80 -90 -39 -93 6 -167 100 -167 59 0
135 46 135 82 0 15 -68 8 -99 -9 -36 -21 -64 -10 -69 26 -3 20 0 21 92 21 l96
0 0 44 c0 65 -31 97 -96 102 -29 3 -61 -1 -79 -9z m89 -69 c15 -24 5 -30 -50
-26 l-49 3 23 23 c26 26 59 26 76 0z"/>
<path d="M6387 562 c-5 -7 -47 -233 -47 -252 0 -5 17 -10 39 -10 l38 0 12 73
c6 39 15 77 19 84 4 7 25 18 47 25 33 11 40 19 46 48 4 19 5 37 3 40 -3 3 -23
-5 -45 -17 -38 -21 -39 -21 -39 -2 0 15 -7 19 -34 19 -19 0 -37 -3 -39 -8z"/>
<path d="M7074 556 c-59 -26 -102 -108 -90 -171 15 -79 116 -110 200 -62 77
44 101 149 48 208 -23 26 -37 32 -78 35 -29 3 -62 -1 -80 -10z m94 -68 c34
-34 -7 -118 -58 -118 -49 0 -63 44 -30 98 15 24 27 32 48 32 15 0 33 -5 40
-12z"/>
<path d="M7306 477 c-10 -52 -14 -106 -10 -121 13 -52 78 -72 137 -42 23 13
27 13 27 0 0 -10 12 -14 39 -14 l38 0 17 90 c9 49 19 110 23 136 l6 45 -39 -3
-38 -3 -15 -83 c-12 -65 -21 -88 -40 -103 -29 -23 -33 -23 -60 -1 -21 17 -21
18 -6 102 8 47 15 86 15 88 0 1 -17 2 -39 2 l-39 0 -16 -93z"/>
<path d="M115 474 c-44 -13 -86 -26 -94 -29 -9 -4 15 -23 62 -51 42 -24 77
-46 77 -48 0 -2 -16 -38 -35 -80 -19 -42 -30 -76 -26 -76 5 0 63 15 128 34 65
18 150 39 188 46 39 7 73 17 76 23 4 6 37 5 92 -3 l85 -13 80 -123 81 -124
108 49 c59 27 119 54 133 60 23 11 40 6 160 -49 101 -45 136 -57 142 -48 4 7
40 63 80 123 l73 110 80 13 c54 9 86 10 100 3 11 -5 54 -17 95 -26 41 -8 124
-29 183 -46 60 -17 111 -29 113 -27 2 2 -8 28 -22 58 -50 106 -52 94 32 144
42 24 72 46 68 49 -12 7 -186 57 -199 57 -6 0 -22 -45 -35 -100 -13 -55 -26
-104 -30 -110 -4 -6 -54 1 -141 21 -73 17 -168 33 -209 36 l-76 6 -73 -112
c-41 -61 -76 -111 -79 -111 -3 0 -57 23 -119 52 l-114 51 -107 -47 c-59 -27
-114 -50 -122 -52 -10 -3 -39 32 -88 107 l-74 112 -76 -6 c-43 -3 -137 -20
-210 -36 -73 -17 -135 -31 -137 -31 -1 0 -15 50 -30 110 -21 85 -31 110 -44
109 -9 -1 -52 -12 -96 -25z"/>
</g>
</svg>
